<?xml version="1.0"?>
<svg xmlns:rdf="http://www.w3.org/1999/02/22-rdf-syntax-ns#" xmlns="http://www.w3.org/2000/svg" xmlns:cc="http://creativecommons.org/ns#" xmlns:xlink="http://www.w3.org/1999/xlink" xmlns:dc="http://purl.org/dc/elements/1.1/" xmlns:svg="http://www.w3.org/2000/svg" id="svg2" viewBox="0 0 64 48" version="1.1">
  <defs id="defs4">
    <linearGradient id="linearGradient6145" y2="1006.4" gradientUnits="userSpaceOnUse" y1="1050.9" gradientTransform="translate(.5 .50003)" x2="43" x1="43.5">
      <stop id="stop6141" stop-color="#000606" stop-opacity=".062745" offset="0"/>
      <stop id="stop6147" stop-color="#000606" stop-opacity=".37647" offset=".052773"/>
      <stop id="stop6143" stop-color="#000606" stop-opacity="0" offset="1"/>
    </linearGradient>
    <linearGradient id="linearGradient8880" y2="52.787" gradientUnits="userSpaceOnUse" y1="-4.9934" x2="11.966" x1="11.966">
      <stop id="stop8876" stop-color="#fff" stop-opacity=".3287" offset="0"/>
      <stop id="stop8878" stop-color="#fff" stop-opacity="0" offset="1"/>
    </linearGradient>
    <linearGradient id="linearGradient9100" y2="-5.7649" gradientUnits="userSpaceOnUse" y1="38.134" x2="31.423" x1="31.423">
      <stop id="stop8933" stop-color="#fff" offset="0"/>
      <stop id="stop8935" stop-color="#fff" stop-opacity="0" offset="1"/>
    </linearGradient>
    <linearGradient id="linearGradient3600-491-652-204" y2="2.5" gradientUnits="userSpaceOnUse" y1="45.5" x2="23.5" x1="23.5">
      <stop id="stop3811" stop-color="#f8fcf8" offset="0"/>
      <stop id="stop3813" stop-color="#f0f9ef" offset="1"/>
    </linearGradient>
  </defs>
  <g id="layer1" transform="translate(0 -1004.4)">
    <rect id="rect3592-3" style="color:#000000" fill-rule="evenodd" rx="2" ry="2" height="43" width="59" y="1008.1" x="3.75" fill="url(#linearGradient6145)"/>
    <rect id="rect3592" stroke-linejoin="round" style="color:#000000" stroke-width=".5" stroke-opacity=".49804" fill-rule="evenodd" rx="2" transform="translate(0 1004.4)" ry="2" width="59" stroke="#3e573c" stroke-linecap="round" y="2.5" x="2.5" height="43" fill="url(#linearGradient3600-491-652-204)"/>
    <rect id="rect3592-9" style="color:#000000" rx="1" ry="1" height="41" width="57" stroke="#fff" stroke-linecap="round" y="1007.9" x="3.5" fill="none"/>
  </g>
  <g id="layer2">
    <g id="g9232" fill="#1e6e52">
      <path id="path3797-4-02" opacity=".46" style="color:#000000" d="m7.5 5.5-2 2h4l-2-2zm7 0-2 2h4l-2-2zm7 0-2 2h4l-2-2zm7 0-2 2h4l-2-2zm7 0-2 2h4l-2-2zm7 0-2 2h4l-2-2zm7 0-2 2h4l-2-2zm7 0-2 2h4l-2-2zm-47.5 0.5 2 2 2-2h-4zm7 0 2 2 2-2h-4zm7 0 2 2 2-2h-4zm14 0 2 2 2-2h-4zm7 0 2 2 2-2h-4zm7 0 2 2 2-2h-4zm-44 2.25-2 2 2 2v-4zm50 0v4l2-2-2-2zm-51.5 3.5v4l2-2-2-2zm53 0-2 2 2 2v-4zm-51.5 3.5-2 2 2 2v-4zm50 0v4l2-2-2-2zm-51.5 3.5v4l2-2-2-2zm53 0-2 2 2 2v-4zm-51.5 3.5-2 2 2 2v-4zm50 0v4l2-2-2-2zm-51.5 3.5v4l2-2-2-2zm53 0-2 2 2 2v-4zm-51.5 3.5-2 2 2 2v-4zm50 0v4l2-2-2-2zm-51.5 3.5v4l2-2-2-2zm53 0-2 2 2 2v-4zm-51.5 3.5-2 2 2 2v-4zm50 0v4l2-2-2-2zm-46 4.25-2 2h4l-2-2zm7 0-2 2h4l-2-2zm7 0-2 2h4l-2-2zm7 0-2 2h4l-2-2zm7 0-2 2h4l-2-2zm7 0-2 2h4l-2-2zm7 0-2 2h4l-2-2zm-47.5 0.5l2 2 2-2h-4zm7 0 2 2 2-2h-4zm7 0 2 2 2-2h-4zm7 0 2 2 2-2h-4zm7 0 2 2 2-2h-4zm7 0 2 2 2-2h-4zm7 0 2 2 2-2h-4zm7 0 2 2 2-2h-4z"/>
      <path id="path3797-4" opacity=".46" style="color:#000000" d="m11 5.5-2 2h4l-2-2zm7 0-2 2h4l-2-2zm7 0-2 2h4l-2-2zm14 0-2 2h4l-2-2zm7 0-2 2h4l-2-2zm7 0-2 2h4l-2-2zm-47.5 0.5l2 2 2-2h-4zm7 0 2 2 2-2h-4zm7 0 2 2 2-2h-4zm7 0 2 2 2-2h-4zm7 0 2 2 2-2h-4zm7 0 2 2 2-2h-4zm7 0 2 2 2-2h-4zm7 0 2 2 2-2h-4zm-49 2.25v4l2-2-2-2zm53 0-2 2 2 2v-4zm-51.5 3.5-2 2 2 2v-4zm50 0v4l2-2-2-2zm-51.5 3.5v4l2-2-2-2zm53 0-2 2 2 2v-4zm-51.5 3.5-2 2 2 2v-4zm50 0v4l2-2-2-2zm-51.5 3.5v4l2-2-2-2zm53 0-2 2 2 2v-4zm-51.5 3.5-2 2 2 2v-4zm50 0v4l2-2-2-2zm-51.5 3.5v4l2-2-2-2zm53 0-2 2 2 2v-4zm-51.5 3.5-2 2 2 2v-4zm50 0v4l2-2-2-2zm-51.5 3.5v4l2-2-2-2zm53 0-2 2 2 2v-4zm-51 4.25-2 2h4l-2-2zm7 0-2 2h4l-2-2zm7 0-2 2h4l-2-2zm7 0-2 2h4l-2-2zm7 0-2 2h4l-2-2zm7 0-2 2h4l-2-2zm7 0-2 2h4l-2-2zm7 0-2 2h4l-2-2zm-47.5 0.5l2 2 2-2h-4zm7 0 2 2 2-2h-4zm7 0 2 2 2-2h-4zm7 0 2 2 2-2h-4zm7 0 2 2 2-2h-4zm7 0 2 2 2-2h-4zm7 0 2 2 2-2h-4z"/>
      <path id="path5115" opacity=".7" style="block-progression:tb;color:#000000;text-transform:none;text-indent:0" d="m17.031 18.5a0.50219 0.50219 0 1 0 0.09375 1h33.375a0.50005 0.50005 0 1 0 0 -1h-33.375a0.50005 0.50005 0 0 0 -0.09375 0z"/>
      <path id="path5115-4" opacity=".7" style="block-progression:tb;color:#000000;text-transform:none;text-indent:0" d="m17 20.214a0.50219 0.50219 0 1 0 0.09375 1h33.406a0.50005 0.50005 0 1 0 0 -1h-33.406a0.50005 0.50005 0 0 0 -0.09375 0z"/>
      <path id="path5115-7" opacity=".7" style="block-progression:tb;color:#000000;text-transform:none;text-indent:0" d="m13.406 21.929a0.50219 0.50219 0 1 0 0.09375 1h37a0.50005 0.50005 0 1 0 0 -1h-37a0.50005 0.50005 0 0 0 -0.09375 0z"/>
      <path id="path5115-4-8" opacity=".7" style="block-progression:tb;color:#000000;text-transform:none;text-indent:0" d="m13.406 25.357a0.50219 0.50219 0 1 0 0.09375 1h37a0.50005 0.50005 0 1 0 0 -1h-37a0.50005 0.50005 0 0 0 -0.09375 0z"/>
      <path id="path5115-7-1" opacity=".7" style="block-progression:tb;color:#000000;text-transform:none;text-indent:0" d="m13.406 27.071a0.50219 0.50219 0 1 0 0.09375 1h37a0.50005 0.50005 0 1 0 0 -1h-37a0.50005 0.50005 0 0 0 -0.09375 0z"/>
      <path id="path5115-4-5-3" opacity=".7" style="block-progression:tb;color:#000000;text-transform:none;text-indent:0" d="m13.406 28.786a0.50219 0.50219 0 1 0 0.09375 1h37a0.50005 0.50005 0 1 0 0 -1h-37a0.50005 0.50005 0 0 0 -0.09375 0z"/>
      <path id="path5115-4-5-3-7" opacity=".7" style="block-progression:tb;color:#000000;text-transform:none;text-indent:0" d="m13.406 30.5a0.50219 0.50219 0 1 0 0.09375 1h12a0.50005 0.50005 0 1 0 0 -1h-12a0.50005 0.50005 0 0 0 -0.09375 0z"/>
      <path id="path5251" opacity=".7" style="block-progression:tb;color:#000000;text-transform:none;text-indent:0" d="m15.996 18.372c-1.4617-0.61941-2.648 0.18978-2.8081 1.2311-0.08008 0.52066 0.15884 1.1385 0.6875 1.4375 0.52866 0.29902 1.1834 0.45254 2.0894 0.28194 0.25955-0.04887 0.41744-0.37138 0.3438-0.62502s-0.37142-0.4174-0.62505-0.34374c-0.76783 0.23931-1.1299-0.0874-1.3081-0.1882-0.1782-0.10079-0.21648-0.21778-0.1875-0.40625 0.05797-0.37693 0.41972-0.8793 1.4331-0.44986 0.24544 0.09817 0.55808-0.03581 0.65625-0.28125 0.09818-0.24544-0.03581-0.55808-0.28125-0.65625z"/>
      <path id="path5614-8" style="block-progression:tb;color:#000000;text-transform:none;text-indent:0" d="m32 7.4988-4.0312 2.3438h1.125v2.5938h-0.5625l-1.75 1.7812h10.438l-1.75-1.7812h-0.5625v-2.5938h1.125l-4.033-2.3434zm0 0.5625 2.4062 1.4688h-4.8438l2.438-1.4688zm0 0.25c-0.31472 0-0.5625 0.24778-0.5625 0.5625s0.24778 0.59375 0.5625 0.59375 0.5625-0.27902 0.5625-0.59375c0-0.31472-0.24778-0.5625-0.5625-0.5625zm0 0.3125c0.15259 0 0.28125 0.097407 0.28125 0.25s-0.12866 0.28125-0.28125 0.28125-0.28125-0.12866-0.28125-0.28125 0.12866-0.25 0.28125-0.25zm-2.387 1.4132h0.3125v2.2633h-0.3125v-2.2633zm0.625 0h0.60577v2.2633h-0.60577v-2.2633zm0.91827 0h0.625v2.2633h-0.625v-2.2633zm0.9375 0h0.625v2.2633h-0.625v-2.2633zm0.9375 0h0.625v2.2633h-0.625v-2.2633zm0.9375 0h0.375v2.2633h-0.375v-2.2633zm-4.97 2.712h5.9062l0.1875 0.1875h-6.25l0.156-0.187zm-0.4375 0.5h6.8438l0.21875 0.1875h-7.2812l0.21875-0.1875zm-0.53125 0.5h7.875l0.15625 0.15625h-8.2188l0.1875-0.15625z"/>
      <path id="path8537-9" d="m39.094 8.5926-0.5625 1.7188-1.8125-0.03125 1.4688 1.0625-0.59375 1.7188 1.4688-1.0625 1.4375 1.0938-0.5625-1.7188 1.5-1.0312-1.8125-0.03125-0.53125-1.7188zm4.5625 0.125-0.40625 1.1875-1.25-0.03125 1 0.75-0.40625 1.1875 1.0312-0.71875 1 0.75-0.375-1.1875 1.0312-0.75h-1.2812l-0.34375-1.1875zm-4.5625 1.2812 0.21875 0.75h0.75l-0.625 0.4375 0.25 0.71875-0.625-0.46875-0.59375 0.4375 0.25-0.71875-0.625-0.4375 0.75 0.03125 0.25-0.75z" style="color:#000000" fill-rule="evenodd"/>
      <path id="path8537-9-3" d="m24.906 8.5926 0.5625 1.7188 1.8125-0.03125-1.4688 1.0625 0.59375 1.7188-1.4688-1.0625-1.4375 1.0938 0.5625-1.7188-1.5-1.0312 1.8125-0.03125 0.53125-1.7188zm-4.5625 0.125 0.40625 1.1875 1.25-0.03125-1 0.75 0.40625 1.1875-1.0312-0.71875-1 0.75 0.375-1.1875-1.0312-0.75h1.2812l0.34375-1.1875zm4.5625 1.2812-0.21875 0.75h-0.75l0.625 0.4375-0.25 0.71875 0.625-0.46875 0.59375 0.4375-0.25-0.71875 0.625-0.4375-0.75 0.03125-0.25-0.75z" style="color:#000000" fill-rule="evenodd"/>
      <path id="path5115-4-5-3-0" opacity=".7" style="block-progression:tb;color:#000000;text-transform:none;text-indent:0" d="m13.406 23.643a0.50219 0.50219 0 1 0 0.09375 1h37a0.50005 0.50005 0 1 0 0 -1h-37a0.50005 0.50005 0 0 0 -0.09375 0z"/>
    </g>
  </g>
  <g id="layer5">
    <path id="path5790" style="color:#000000" d="m41.843 16.23c-0.06635-0.14962-0.18507-0.27539-0.33062-0.35024s-0.31691-0.09827-0.47721-0.06521c-0.18589 0.03834-0.35456 0.15282-0.46032 0.31042s-0.1478 0.35633-0.1167 0.54357c0.02512 0.15121 0.09702 0.29431 0.20334 0.40472s0.24661 0.18765 0.39676 0.21846h2.3161" stroke="#000" stroke-linecap="round" stroke-width=".65" fill="none"/>
    <path id="path5115-4-5-3-7-5" opacity=".75" style="color:#000000" d="m13.5 36.5h11" stroke="#000" stroke-linecap="round" stroke-width=".5" fill="none"/>
    <path id="path5416" opacity=".75" d="m15.286 33.238c-0.29435 0.01777-1.126 0.5886-1.1735 0.92668s0.56678 0.45896 0.30046 0.93447-0.85218 0.21745-0.95754-0.22326c-0.10535-0.44071-0.61048 0.03559-0.42644 0.44785s0.71278 0.81172 1.1906 0.592c0.47784-0.21972 0.8363-0.697 1.3548-0.49927 0.51852 0.19772 0.97897-0.22745 1.4059-0.02359 0.42697 0.20386 0.60616 0.29373 0.96672 0.39271s0.8119-0.33936 1.2076-0.39182c0.39572-0.05246 0.36762-0.62089 1.2165-0.64056 0.84886-0.01966 3.1066 0.24711 3.8921 0.432 0.78554 0.18489 1.1041 0.07287 0.6658-0.31415-0.43831-0.38702-0.55642-0.11529-1.4273-0.18805-0.87083-0.07275-3.0149-0.48297-3.8694-0.4625-0.85448 0.02046-0.89552 1.114-1.4045 1.0376-0.50896-0.07641-1.2397-0.18572-1.4107-0.48883-0.17106-0.30311-0.29789-0.42177-0.47998-0.17001s-1.0006 0.45185-0.83818 0.0753c0.16246-0.37656 0.11152-1.1018-0.01872-1.3186-0.13024-0.21677 0.09998-0.13576-0.19437-0.11798zm9.5625 1.6875c0.05951-0.10148-0.05951 0.10148 0 0z" style="block-progression:tb;color:#000000;text-transform:none;text-indent:0" fill="#000080"/>
    <path id="path5115-4-5-3-7-5-6" opacity=".75" style="color:#000000" d="m39.5 36.5h11" stroke="#000" stroke-linecap="round" stroke-width=".5" fill="none"/>
    <path id="path5455" opacity=".75" d="m42.594 32.63c-0.766 0.25049-1.4838 0.72725-1.891 1.4374-0.29394 0.34183-0.53559 0.95515-0.10412 1.2659-0.88012 0.45054-0.28921 0.78758 0.51637 0.42277 0.40258-0.02274 0.8678-0.62113 1.1909-0.23694 0.27837 0.25501 0.69166 0.2525 0.93722 0.58856 0.38019 0.06347 0.81746-0.65139 1.1728-0.31044 1.1842 0.37924 1.2238-0.01617 2.043-0.6426 1.882 1.2065 3.2721 1.2891 5.553 1.1784-2.7607-0.46435-3.7945-0.80184-5.3975-1.8878-0.53217-0.15562-0.71018 0.21173-0.8777 0.56174-0.44228 0.49502-0.39978 0.45543-1.0221 0.35357 0.02335-0.31413-0.09381-0.23585-0.19436-0.49967-0.4405-0.08313-0.86864 0.10897-1.2437 0.31358-0.24109 0.15996-0.96907-0.05709-0.44605-0.25681 0.41087-0.2801 0.44637-0.80122 0.64507-1.2172 0.1512-0.42085 0.01948-1.0716-0.51836-1.094-0.12129-0.0139-0.24486-0.0047-0.36351 0.02336v0.000012zm0.34375 0.53125c0.1247 0.47284-0.14302 0.94247-0.58963 1.0988-0.23769 0.34213-0.52544 0.65274-0.9623 0.71241-0.36771 0.19856-0.62357-0.20903-0.31744-0.48068 0.40181-0.68133 1.0617-1.2376 1.8694-1.3306z" style="block-progression:tb;color:#000000;text-transform:none;text-indent:0" fill="#000080"/>
    <g id="g5781" opacity=".75" transform="matrix(.759 0 0 .759 -38.153 20.921)">
      <path id="path5491" opacity=".75" d="m92.428 12.954c-3.3639 0-6.0938 2.7299-6.0938 6.0938s2.7299 6.0938 6.0938 6.0938 6.0938-2.7299 6.0938-6.0938-2.7299-6.0938-6.0938-6.0938zm0 0.5c0.13981 0 0.26904 0.02121 0.40625 0.03125l-0.53125 0.96875c-0.02654-0.04479-0.0348-0.07928-0.0625-0.125-0.13114-0.21643-0.27439-0.43095-0.375-0.59375-0.0503-0.0814-0.09312-0.1698-0.125-0.21875-0.0064-0.0098 0.0048-0.0239 0-0.03125 0.21816-0.02576 0.46232-0.03125 0.6875-0.03125zm0.71875 0.0625c0.20087 0.0261 0.40021 0.04699 0.59375 0.09375-0.0098 0.0091-0.02204 0.01992-0.03125 0.03125-0.03682 0.04535-0.06646 0.11181-0.125 0.1875-0.06397 0.08272-0.17041 0.17743-0.25 0.28125l-0.1875-0.59375zm-1.875 0.03125c0.04-0.0082 0.08469 0.0073 0.125 0-0.0029 0.0125 0.0038 0.01715 0 0.03125-0.01519 0.0564-0.03981 0.12579-0.0625 0.21875-0.02487 0.10191-0.0622 0.24613-0.09375 0.375l-0.4375-0.5c0.15429-0.04582 0.30917-0.09242 0.46875-0.125zm2.7812 0.15625c0.36082 0.1099 0.7056 0.22954 1.0312 0.40625l-0.90625 0.6875c-0.0073-0.05512 0.0072-0.09966 0-0.15625-0.03177-0.25106-0.06806-0.49786-0.09375-0.6875-0.01285-0.09482-0.02204-0.16107-0.03125-0.21875-0.0014-0.0087 0.002-0.0233 0-0.03125zm-3.5312 0.09375-0.09375 1.0938c-0.04443-0.0316-0.0799-0.06242-0.125-0.09375-0.20783-0.14438-0.40437-0.2672-0.5625-0.375-0.07906-0.0539-0.13847-0.09325-0.1875-0.125-0.01508-0.0098-0.04697-0.01893-0.0625-0.03125 0.32119-0.19665 0.67139-0.33941 1.0312-0.46875zm2.4375 0.0625 0.15625 0.53125c-0.14342 0.18851-0.26636 0.39024-0.375 0.53125-0.02898 0.03762-0.07004 0.0634-0.09375 0.09375-0.02197-0.03509-0.03498-0.08027-0.0625-0.125-0.02752-0.04471-0.06342-0.10498-0.09375-0.15625l0.46875-0.875zm-1.3438 0.03125c0.098 0.15885 0.21743 0.35402 0.34375 0.5625 0.06073 0.10023 0.1286 0.18373 0.1875 0.28125l-0.15625 0.28125-0.5-0.5625c0.04973-0.204 0.08712-0.40694 0.125-0.5625zm2.1875 0.09375c0.0254 0.18745 0.06198 0.4365 0.09375 0.6875 0.01445 0.11418 0.02086 0.2066 0.03125 0.3125l-0.25 0.1875-0.21875-0.71875c0.12409-0.1627 0.24939-0.34674 0.34375-0.46875zm-3.0312 0.09375 0.40625 0.4375c-0.05427 0.23588-0.11348 0.47962-0.15625 0.65625-0.01315 0.0543-0.02074 0.08312-0.03125 0.125-0.03303-0.02226-0.05272-0.06567-0.09375-0.09375-0.0491-0.0336-0.13022-0.08408-0.1875-0.125l0.0625-1zm4.5938 0.1875c0.16421 0.10161 0.31647 0.22619 0.46875 0.34375-0.05208 0.02645-0.16574 0.04842-0.25 0.09375-0.08951 0.04816-0.20221 0.12726-0.3125 0.1875l0.09375-0.625zm-6.125 0.15625c0.0044 0.0154-0.003 0.04327 0 0.0625 0.0091 0.05771 0.01417 0.1246 0.03125 0.21875 0.01872 0.10322 0.06929 0.24175 0.09375 0.375l-0.625-0.25c0.16594-0.14564 0.3175-0.28085 0.5-0.40625zm5.7812 0.09375-0.0625 0.5625c-0.2074 0.11587-0.40579 0.22782-0.5625 0.3125-0.04636 0.02505-0.08834 0.04306-0.125 0.0625-0.0057-0.04019-0.02449-0.07439-0.03125-0.125-0.0069-0.0517-0.02312-0.12868-0.03125-0.1875l0.8125-0.625zm-5.4375 0.15625c0.1541 0.10524 0.36243 0.23601 0.5625 0.375 0.10115 0.07027 0.18217 0.11949 0.28125 0.1875l-0.03125 0.3125-0.71875-0.3125c-0.03802-0.19443-0.06636-0.41204-0.09375-0.5625zm3.6562 0.0625 0.1875 0.6875c-0.20509-0.05739-0.40747-0.10289-0.625-0.125 0.03671-0.04566 0.0977-0.11151 0.15625-0.1875 0.07909-0.10266 0.18042-0.23784 0.28125-0.375zm-1.8438 0.0625 0.46875 0.5c-0.21276 0.03116-0.42525 0.09121-0.625 0.15625 0.01497-0.05664 0.03992-0.12552 0.0625-0.21875 0.02866-0.11833 0.05672-0.28575 0.09375-0.4375zm4.6875 0.03125c0.27136 0.2369 0.52874 0.4965 0.75 0.78125l-1.0312 0.25c0.0136-0.04437 0.01768-0.08001 0.03125-0.125 0.07309-0.24228 0.13384-0.47255 0.1875-0.65625 0.02683-0.09185 0.04746-0.19356 0.0625-0.25zm-0.34375 0.15625c-0.05304 0.18158-0.11443 0.41404-0.1875 0.65625-0.03304 0.10952-0.06198 0.20559-0.09375 0.3125l-0.3125 0.0625 0.09375-0.75c0.1835-0.10488 0.36072-0.20631 0.5-0.28125zm-7.2188 0.03125 0.40625 1.0625c-0.05569-0.01063-0.09957-0.02045-0.15625-0.03125-0.24859-0.04737-0.4992-0.09083-0.6875-0.125-0.09415-0.01708-0.16104-0.02219-0.21875-0.03125-0.02019-0.0032-0.04655-0.02678-0.0625-0.03125 0.2108-0.30677 0.45245-0.58546 0.71875-0.84375zm3.7812 0.03125c0.0062 0.01004 0.02533 0.02164 0.03125 0.03125 0.05028 0.08169 0.09326 0.13825 0.125 0.1875-0.01079-0.000091-0.02044 0-0.03125 0-0.08392 0-0.16744 0.02587-0.25 0.03125l0.125-0.25zm-3.4062 0.15625 0.53125 0.25c0.04308 0.22581 0.09377 0.45461 0.125 0.625 0.0086 0.04671-0.0067 0.08706 0 0.125-0.03794-0.0067-0.04704-0.02265-0.09375-0.03125-0.06726-0.01233-0.17014-0.01616-0.25-0.03125l-0.3125-0.9375zm5.0625 0.125c0.0011 0.0088-0.0011 0.02268 0 0.03125 0.01271 0.09508 0.02229 0.1921 0.03125 0.25-0.08483-0.03902-0.16194-0.09221-0.25-0.125l0.21875-0.15625zm-3.2812 0.09375c0.01045 0.0071 0.02129 0.02444 0.03125 0.03125 0.07917 0.05418 0.13848 0.09292 0.1875 0.125-0.0882 0.03854-0.16545 0.08009-0.25 0.125l0.03125-0.28125zm4.25 0.03125-0.09375 0.6875c-0.16701-0.14036-0.34152-0.2648-0.53125-0.375 0.05211-0.02678 0.13436-0.04814 0.21875-0.09375 0.10918-0.059 0.26858-0.1435 0.40625-0.21875zm-2.5 0.09375c1.9225 0 3.4688 1.5775 3.4688 3.5s-1.5462 3.4688-3.4688 3.4688c-1.9225 0-3.5-1.5462-3.5-3.4688 0-1.9225 1.5775-3.5 3.5-3.5zm-2.6562 0.0625 0.5625 0.28125c-0.16723 0.1112-0.32162 0.23936-0.46875 0.375-0.0094-0.05783-0.01396-0.15564-0.03125-0.25-0.02127-0.11604-0.03469-0.26033-0.0625-0.40625zm7.25 0.25c0.11031 0.16054 0.21912 0.32791 0.3125 0.5-0.05834 0.003-0.15458 0.0241-0.25 0.03125-0.10402 0.0078-0.24834 0.02087-0.375 0.03125l0.3125-0.5625zm-0.40625 0.09375-0.28125 0.5c-0.2298 0.01893-0.45268 0.04928-0.625 0.0625-0.05551 0.0043-0.08202-0.0029-0.125 0 0.01183-0.04152 0.01549-0.0714 0.03125-0.125 0.01761-0.05988 0.04099-0.14867 0.0625-0.21875l0.9375-0.21875zm-9 0.1875c0.0068 0.01 0.02173 0.01654 0.03125 0.03125 0.03175 0.04903 0.0711 0.10844 0.125 0.1875 0.05715 0.08384 0.1443 0.20416 0.21875 0.3125h-0.625c0.08259-0.17674 0.15006-0.3652 0.25-0.53125zm0.4375 0.0625c0.1825 0.03332 0.42038 0.08005 0.65625 0.125 0.11333 0.0216 0.20596 0.04223 0.3125 0.0625l0.125 0.3125h-0.78125c-0.11778-0.17699-0.22072-0.3656-0.3125-0.5zm7.3125 0.0625c-0.0055 0.01883-0.02607 0.04489-0.03125 0.0625-0.02706 0.09203-0.04714 0.16221-0.0625 0.21875-0.06706-0.077-0.14576-0.14741-0.21875-0.21875l0.3125-0.0625zm-6.0312 0.1875c0.01742 0.0032 0.04589-0.003 0.0625 0 0.09436 0.0173 0.16091 0.05314 0.21875 0.0625-0.06384 0.07086-0.12909 0.1432-0.1875 0.21875l-0.09375-0.28125zm7.75 0.21875c-0.12075 0.14224-0.24716 0.34686-0.40625 0.53125-0.07749 0.08981-0.14428 0.16384-0.21875 0.25l-0.3125-0.0625 0.375-0.65625c0.20411-0.01731 0.4038-0.05044 0.5625-0.0625zm0.40625 0c0.15418 0.33067 0.2561 0.66905 0.34375 1.0312l-1.0312-0.1875c0.03637-0.04206 0.05741-0.08288 0.09375-0.125 0.16532-0.1916 0.31376-0.38526 0.4375-0.53125 0.06187-0.073 0.11955-0.14206 0.15625-0.1875zm-1.3438 0.09375-0.34375 0.625c-0.09377-0.19137-0.18906-0.39092-0.3125-0.5625 0.0585-0.0033 0.15435-0.02391 0.25-0.03125 0.1129-0.0087 0.26243-0.01992 0.40625-0.03125zm-8.9062 0.1875 0.78125 0.8125c-0.05764 0.01236-0.0981 0.0176-0.15625 0.03125-0.24636 0.05784-0.50158 0.11087-0.6875 0.15625-0.09296 0.02269-0.16235 0.04731-0.21875 0.0625-0.0094 0.0025-0.02245-0.002-0.03125 0 0.06775-0.37359 0.17467-0.71888 0.3125-1.0625zm0.40625 0.03125h0.5625c0.13614 0.19436 0.27447 0.38436 0.375 0.53125 0.02682 0.03919 0.04096 0.06181 0.0625 0.09375-0.03791 0.0095-0.07794 0.01986-0.125 0.03125-0.0622 0.01506-0.14437 0.04694-0.21875 0.0625l-0.65625-0.71875zm0.9375 0h0.65625c-0.11252 0.17319-0.19783 0.37134-0.28125 0.5625-0.03208-0.04903-0.07082-0.10834-0.125-0.1875-0.06788-0.09918-0.16045-0.25018-0.25-0.375zm7.3438 0.65625 0.3125 0.0625c-0.0081 0.0095-0.02351 0.02215-0.03125 0.03125-0.06216 0.07307-0.11922 0.1421-0.15625 0.1875-0.0093 0.01135-0.02123 0.02225-0.03125 0.03125-0.03237-0.1076-0.05229-0.20916-0.09375-0.3125zm0.65625 0.125 0.96875 0.15625-0.5 0.34375c-0.21567-0.07629-0.43254-0.1613-0.59375-0.21875-0.04832-0.01722-0.05548-0.01729-0.09375-0.03125 0.02476-0.02951 0.03174-0.05758 0.0625-0.09375 0.03831-0.04504 0.11018-0.10277 0.15625-0.15625zm-7.75 0.09375c-0.03197 0.09667-0.06954 0.18132-0.09375 0.28125l-0.1875-0.21875c0.017-0.0041 0.04638 0.0039 0.0625 0 0.09323-0.02258 0.1621-0.04754 0.21875-0.0625zm-0.59375 0.15625 0.21875 0.21875-0.71875 0.3125c-0.17041-0.10382-0.33703-0.19999-0.46875-0.28125 0.18214-0.04435 0.41624-0.13115 0.65625-0.1875 0.1113-0.02613 0.20633-0.03646 0.3125-0.0625zm9.6875 0.03125c0.03169 0.1809 0.04859 0.37602 0.0625 0.5625-0.05244-0.02192-0.10829-0.06537-0.1875-0.09375-0.0987-0.03537-0.24949-0.08427-0.375-0.125l0.5-0.34375zm-1.8125 0.21875c0.01051 0.002 0.0203-0.0042 0.03125 0 0.05477 0.02081 0.12839 0.0303 0.21875 0.0625 0.11201 0.03992 0.26225 0.10391 0.40625 0.15625l-0.59375 0.40625c-0.0085-0.20649-0.02222-0.4283-0.0625-0.625zm-9.25 0.09375c0.0074 0.0048 0.02146-0.0064 0.03125 0 0.04895 0.03188 0.1061 0.07469 0.1875 0.125 0.09445 0.05837 0.22559 0.14434 0.34375 0.21875l-0.59375 0.25c0.0031-0.19399 0.009-0.40508 0.03125-0.59375zm1.8125 0.09375c-0.0294 0.19005-0.0625 0.3955-0.0625 0.59375 0 0.01072-0.000089 0.02055 0 0.03125-0.04925-0.03174-0.10581-0.04346-0.1875-0.09375-0.10483-0.06452-0.23727-0.16686-0.375-0.25l0.625-0.28125zm8.4375 0.15625c0.19348 0.07167 0.38106 0.13377 0.53125 0.1875-0.1683 0.0809-0.37296 0.1773-0.59375 0.28125-0.10279 0.04839-0.18467 0.07976-0.28125 0.125l-0.25-0.15625 0.59375-0.4375zm-9.4062 0.28125c0.20213 0.12152 0.41081 0.21913 0.5625 0.3125 0.04472 0.02753 0.08992 0.07178 0.125 0.09375-0.03169 0.02479-0.0538 0.03172-0.09375 0.0625-0.04334 0.03339-0.10584 0.0862-0.15625 0.125l-0.9375-0.375 0.5-0.21875zm10.312 0.0625c0.000482 0.03033 0 0.0633 0 0.09375 0 0.3327-0.03829 0.65214-0.09375 0.96875l-0.875-0.59375c0.04593-0.02153 0.07835-0.04054 0.125-0.0625 0.22896-0.1078 0.45258-0.22946 0.625-0.3125 0.08621-0.04152 0.16674-0.06717 0.21875-0.09375zm-1.8438 0.21875 0.25 0.1875c-0.0865 0.04147-0.16646 0.09858-0.21875 0.125-0.02615 0.01321-0.04541 0.02171-0.0625 0.03125 0.01468-0.11525 0.02719-0.22551 0.03125-0.34375zm-9.3438 0.09375 1.0312 0.40625c-0.04467 0.03413-0.07962 0.05929-0.125 0.09375-0.20154 0.15304-0.41111 0.32042-0.5625 0.4375-0.07569 0.05854-0.14215 0.11943-0.1875 0.15625-0.08554-0.3541-0.14148-0.71672-0.15625-1.0938zm1.8438 0.15625c0.0097 0.09516 0.01461 0.1883 0.03125 0.28125l-0.28125-0.09375c0.0099-0.0076 0.02169-0.02389 0.03125-0.03125 0.07599-0.05855 0.14184-0.08828 0.1875-0.125 0.01141-0.0092 0.01755-0.02136 0.03125-0.03125zm8.0625 0.125 0.8125 0.5625-0.59375 0.09375c-0.15891-0.1512-0.31717-0.32286-0.4375-0.4375-0.03651-0.03479-0.03356-0.03453-0.0625-0.0625 0.03728-0.01823 0.04623-0.03972 0.09375-0.0625 0.05235-0.02509 0.12649-0.06502 0.1875-0.09375zm-8.5938 0.25 0.3125 0.125-0.53125 0.5625c-0.2053-0.02648-0.40965-0.04179-0.5625-0.0625 0.14964-0.11572 0.32976-0.2845 0.53125-0.4375 0.09073-0.0689 0.16444-0.12185 0.25-0.1875zm7.9688 0c0.0056 0.0109 0.01878 0.01887 0.03125 0.03125 0.04157 0.04128 0.11805 0.09008 0.1875 0.15625 0.08682 0.08271 0.20444 0.20794 0.3125 0.3125l-0.71875 0.125c0.07832-0.19926 0.14366-0.41095 0.1875-0.625zm-7.3438 0.25c0.05682 0.20494 0.12989 0.40433 0.21875 0.59375-0.0088-0.0023-0.0216 0.0015-0.03125 0-0.0579-0.009-0.12367-0.01855-0.21875-0.03125-0.12112-0.01619-0.28608-0.0419-0.4375-0.0625l0.46875-0.5zm9.0938 0.3125c-0.04425 0.18392-0.09436 0.35496-0.15625 0.53125-0.04125-0.04136-0.08709-0.09012-0.15625-0.15625-0.07347-0.07025-0.18655-0.16286-0.28125-0.25l0.59375-0.125zm-0.96875 0.1875c0.15538 0.14428 0.31992 0.294 0.4375 0.40625-0.18732 0.0055-0.44121-0.0052-0.6875 0-0.12621 0.0027-0.22475-0.0032-0.34375 0l-0.15625-0.25 0.75-0.15625zm-9.8125 0.125c0.05768 0.0092 0.12393 0.0184 0.21875 0.03125 0.0994 0.01347 0.24874 0.04585 0.375 0.0625l-0.40625 0.4375c-0.07451-0.17642-0.1311-0.34609-0.1875-0.53125zm8.7188 0 0.21875 0.3125c-0.01838 0.000523-0.0451-0.00049-0.0625 0-0.09589 0.0027-0.19148-0.0029-0.25 0-0.02926 0.0014-0.043-0.0018-0.0625 0 0.06186-0.10201 0.10405-0.20449 0.15625-0.3125zm-7.7188 0.125c0.22678 0.02665 0.45353 0.07084 0.625 0.09375 0.04707 0.0063 0.0556-0.0054 0.09375 0-0.01897 0.03573-0.03834 0.08029-0.0625 0.125-0.02821 0.0522-0.06072 0.12676-0.09375 0.1875l-0.96875 0.03125 0.40625-0.4375zm1.0625 0.15625c0.05395 0.09131 0.12632 0.16382 0.1875 0.25h-0.34375c0.006-0.01087 0.02557-0.02075 0.03125-0.03125 0.04561-0.08439 0.09822-0.16664 0.125-0.21875zm6.3438 0.25c0.0063 0.01853 0.02065 0.06644 0.03125 0.09375 0.02119 0.05462 0.05722 0.0988 0.09375 0.1875 0.04529 0.10995 0.10109 0.26127 0.15625 0.40625l-0.71875-0.15625c0.16292-0.15922 0.30529-0.34501 0.4375-0.53125zm1.8438 0.03125c0.09565-0.0029 0.19167 0.0031 0.25 0-0.13937 0.32553-0.3354 0.64739-0.53125 0.9375l-0.5625-0.90625c0.05556-0.0014 0.09875 0.0012 0.15625 0 0.25301-0.0054 0.49621-0.02552 0.6875-0.03125zm-1.375 0.03125c0.06041-0.0017 0.14966 0.002 0.21875 0l0.5 0.84375-0.53125-0.125c-0.0929-0.22329-0.18077-0.42569-0.25-0.59375-0.01734-0.0421-0.0485-0.05914-0.0625-0.09375 0.04075-0.0015 0.07362-0.0298 0.125-0.03125zm-6.4375 0.15625c0.13625 0.1642 0.27578 0.32964 0.4375 0.46875-0.01604 0.0038-0.04271 0.02587-0.0625 0.03125-0.05654 0.01536-0.12672 0.0042-0.21875 0.03125-0.11307 0.03325-0.26454 0.08122-0.40625 0.125l0.25-0.65625zm-0.6875 0.0625h0.34375l-0.25 0.71875c-0.20694 0.06329-0.43731 0.11056-0.59375 0.15625 0.08963-0.16658 0.22191-0.37202 0.34375-0.59375 0.05713-0.10396 0.09884-0.18392 0.15625-0.28125zm-0.34375 0.03125c-0.02008 0.03663-0.04214 0.0567-0.0625 0.09375-0.12187 0.22179-0.25307 0.45647-0.34375 0.625-0.04534 0.08426-0.06729 0.16667-0.09375 0.21875-0.21569-0.2794-0.40212-0.58833-0.5625-0.90625l1.0625-0.03125zm6.375 0.375 0.0625 0.375c-0.01917-0.0077-0.04443-0.02381-0.0625-0.03125-0.0887-0.03654-0.16413-0.07257-0.21875-0.09375-0.02731-0.01059-0.04397 0.0063-0.0625 0 0.10218-0.07174 0.18682-0.16877 0.28125-0.25zm-4.6875 0.1875c0.09156 0.06749 0.18366 0.12832 0.28125 0.1875l-0.28125 0.125c0.00068-0.0089-0.000661-0.02263 0-0.03125 0.0073-0.09565-0.0033-0.16025 0-0.21875 0.0011-0.0195 0.000356-0.04719 0-0.0625zm5 0 0.71875 0.15625c0.08522 0.19542 0.18856 0.38132 0.25 0.53125-0.17504-0.07173-0.423-0.15201-0.65625-0.25-0.10474-0.044-0.18153-0.08579-0.28125-0.125l-0.03125-0.3125zm-5.2812 0.125c-0.0029 0.04297-0.02699 0.06948-0.03125 0.125-0.0044 0.05753 0.0052 0.15069 0 0.21875l-0.90625 0.4375 0.1875-0.53125c0.23145-0.07013 0.45058-0.16746 0.625-0.21875 0.0536-0.01576 0.08348-0.01942 0.125-0.03125zm4.4688 0.0625c-0.0018 0.0195-0.02982 0.06449-0.03125 0.09375-0.0029 0.05852 0.0027 0.12286 0 0.21875-0.0034 0.12204 0.0041 0.28122 0 0.4375l-0.59375-0.4375c0.22398-0.0834 0.42334-0.19021 0.625-0.3125zm1.9062 0.03125 0.59375 0.125c-0.11766 0.15489-0.24214 0.29589-0.375 0.4375-0.01746-0.05248-0.03101-0.11065-0.0625-0.1875-0.04129-0.10076-0.1011-0.24811-0.15625-0.375zm-5.5625 0.09375c0.20055 0.10169 0.40592 0.18494 0.625 0.25-0.01567 0.01174-0.0398 0.01274-0.0625 0.03125-0.0454 0.03703-0.08318 0.09409-0.15625 0.15625-0.09155 0.07788-0.22643 0.17978-0.34375 0.28125l-0.0625-0.71875zm3.9375 0.0625c0.03849 0.0155 0.04504 0.04244 0.09375 0.0625 0.05947 0.02449 0.14802 0.066 0.21875 0.09375l0.125 0.96875-0.46875-0.34375c0.0052-0.23008 0.02639-0.45235 0.03125-0.625 0.0014-0.05112-0.0014-0.11563 0-0.15625zm-5.8438 0.09375-0.1875 0.5625c-0.13439-0.12542-0.28477-0.23697-0.40625-0.375 0.05644-0.01505 0.1269-0.06692 0.21875-0.09375 0.09962-0.0291 0.24688-0.05563 0.375-0.09375zm1.625 0.0625 0.0625 0.75c-0.15441 0.13297-0.3184 0.27389-0.4375 0.375 0.01411-0.18688 0.04194-0.44198 0.0625-0.6875 0.0096-0.11469 0.02264-0.2027 0.03125-0.3125l0.28125-0.125zm3.0625 0.03125-0.09375 0.34375c-0.0086-0.0089-0.02298-0.02257-0.03125-0.03125-0.06617-0.06945-0.11496-0.11468-0.15625-0.15625-0.01548-0.01559-0.01854-0.04998-0.03125-0.0625 0.10702-0.02192 0.20897-0.063 0.3125-0.09375zm-1.9062 0.0625c0.12015 0.02691 0.25084 0.04732 0.375 0.0625l-0.21875 0.28125c-0.0066-0.01837-0.02509-0.04521-0.03125-0.0625-0.0322-0.09036-0.07295-0.16398-0.09375-0.21875-0.0104-0.02738-0.02355-0.0445-0.03125-0.0625zm3.6875 0c0.04586 0.01853 0.0788 0.04309 0.125 0.0625 0.23331 0.09802 0.47916 0.20868 0.65625 0.28125 0.07327 0.03002 0.13604 0.04155 0.1875 0.0625-0.26089 0.24477-0.53949 0.46478-0.84375 0.65625l-0.125-1.0625zm-2.375 0.0625c-0.0095 0.0171-0.01804 0.06761-0.03125 0.09375-0.02642 0.05229-0.08353 0.101-0.125 0.1875-0.04914 0.10251-0.096 0.24635-0.15625 0.375l-0.34375-0.625c0.06231 0.0031 0.12444 0.03125 0.1875 0.03125 0.16348 0 0.31071-0.04237 0.46875-0.0625zm-3.0625 0.125c-0.0044 0.05448 0.0046 0.10153 0 0.15625-0.02112 0.25218-0.04821 0.49666-0.0625 0.6875-0.0071 0.09542-0.02827 0.16041-0.03125 0.21875-0.31706-0.17205-0.59883-0.36592-0.875-0.59375l0.96875-0.46875zm3.9062 0.03125 0.59375 0.4375c-0.005 0.21202-0.0265 0.43192-0.03125 0.59375-0.12886-0.13498-0.27068-0.32243-0.4375-0.5-0.07579-0.08067-0.14647-0.14423-0.21875-0.21875l0.09375-0.3125zm-2.3438 0.0625c0.01396 0.03826 0.01403 0.04542 0.03125 0.09375 0.0201 0.0564 0.03793 0.15154 0.0625 0.21875l-0.625 0.75-0.0625-0.5625c0.18013-0.15556 0.36433-0.32209 0.5-0.4375 0.03617-0.03077 0.06424-0.03774 0.09375-0.0625zm1.6875 0.09375c0.02445 0.02537 0.03339 0.06319 0.0625 0.09375 0.04222 0.04432 0.10655 0.10511 0.15625 0.15625l-0.28125 0.90625-0.25-0.46875c0.10086-0.21458 0.17284-0.4328 0.25-0.59375 0.01968-0.04106 0.04615-0.06018 0.0625-0.09375zm-1.0312 0.03125 0.375 0.65625c-0.09158 0.19533-0.21066 0.38468-0.28125 0.53125-0.06382-0.17808-0.1355-0.38609-0.21875-0.625-0.03764-0.10802-0.05599-0.20898-0.09375-0.3125l0.21875-0.25zm1.5 0.46875c0.02796 0.02929 0.0344 0.06384 0.0625 0.09375 0.17327 0.18444 0.36774 0.36168 0.5 0.5 0.06613 0.06916 0.11489 0.115 0.15625 0.15625-0.33254 0.11674-0.67314 0.19757-1.0312 0.25l0.3125-1zm1.0625 0 0.46875 0.375c-0.14664 0.07957-0.31453 0.15228-0.46875 0.21875 0.000743-0.0563-0.0025-0.10552 0-0.1875 0.0034-0.11304-0.0038-0.26756 0-0.40625zm-3 0.0625c0.0152 0.04254 0.01641 0.08241 0.03125 0.125 0.08327 0.23897 0.15418 0.47609 0.21875 0.65625 0.02838 0.07921 0.07183 0.13506 0.09375 0.1875-0.35274-0.0282-0.70016-0.09711-1.0312-0.1875l0.6875-0.78125zm-1.0625 0.0625 0.0625 0.625c-0.19317-0.06547-0.37951-0.13342-0.5625-0.21875 0.04544-0.0367 0.1145-0.06313 0.1875-0.125 0.08663-0.07342 0.20728-0.18562 0.3125-0.28125zm2.0312 0.375 0.28125 0.53125c-0.14749 0.01162-0.28698 0.03125-0.4375 0.03125-0.03045 0-0.06342 0.000482-0.09375 0 0.02659-0.05201 0.05222-0.13254 0.09375-0.21875 0.04484-0.09311 0.09706-0.22784 0.15625-0.34375z" style="block-progression:tb;color:#000000;text-transform:none;text-indent:0" fill="#000080"/>
      <path id="path5614" d="m89.937 17.735h0.68915v1.5959h-0.33851l-1.076 1.1076h6.432l-1.076-1.1076h-0.33851v-1.5959h0.68915l-2.4906-1.4629-2.4907 1.4629zm2.4906-1.098 1.4932 0.90454h-3.0074l1.5142-0.90454zm-1.4923 1.1101h0.19861v1.5838h-0.19861v-1.5838zm0.39205 0h0.38689v1.5838h-0.38689v-1.5838zm0.58033 0h0.38689v1.5838h-0.38689v-1.5838zm0.58033 0h0.38689v1.5838h-0.38689v-1.5838zm0.58033 0h0.38689v1.5838h-0.38689v-1.5838zm0.58033 0h0.21853v1.5838h-0.21853v-1.5838zm-3.066 1.7773h3.6477l0.10881 0.10881h-3.8653l0.10881-0.10881zm-0.27807 0.27807v0.02417h4.228l0.133 0.1209h-4.5061l0.14508-0.14508zm-0.33853 0.33853h4.8809l0.09357 0.10411h-5.0786l0.10411-0.10411z" style="block-progression:tb;color:#000000;text-transform:none;text-indent:0" fill="#000080"/>
      <path id="path5777" style="color:#000000" d="m90.313 20.942h4.2308" stroke="#000080" stroke-linecap="round" stroke-width=".5" fill="none"/>
    </g>
    <g id="text5786">
      <path id="path9043" d="m25.906 15.219c-0.0011 0.000452-0.09456 0.01933-0.1875 0.03125-0.04647 0.006-0.09798 0.0014-0.15625 0.03125s-0.11627 0.10151-0.125 0.1875c-0.0045 0.04465-0.0227 0.10491 0 0.15625s0.07971 0.10802 0.125 0.125c0.03019 0.01132 0.04085-0.0017 0.0625 0v1.2812c-0.05278 0.03402-0.11568 0.06113-0.15625 0.125-0.01685 0.02653-0.02706 0.04379-0.03125 0.09375-0.0042 0.04996 0.0209 0.11648 0.0625 0.15625 0.08321 0.07954 0.1363 0.0678 0.21875 0.0625h0.75a0.16319 0.16319 0 0 0 0.03125 0 0.16319 0.16319 0 0 0 0.03125 0 0.16319 0.16319 0 0 0 0.03 -0.03 0.16319 0.16319 0 0 0 0.032 -0.032 0.16319 0.16319 0 0 0 0.031 -0.031c0.01673-0.04318 0.03449-0.10425 0.03125-0.15625-0.0032-0.052-0.02566-0.08839-0.0625-0.125-0.07369-0.07323-0.14368-0.08727-0.1875-0.09375-0.02191-0.0032-0.0194 0.0023-0.03125 0v-0.34375c0.384 0.07864 0.81703-0.0814 0.96875-0.46875 0.07561-0.21242 0.0506-0.46292-0.09375-0.65625-0.14654-0.17286-0.34446-0.25046-0.53125-0.28125s-0.3752-0.02696-0.53125-0.03125h-0.21875a0.16319 0.16319 0 0 0 -0.03125 0 0.16319 0.16319 0 0 0 -0.03125 0zm3.9375 0c-0.1768 0.02979-0.44582-0.0011-0.65625 0.1875-0.01459 0.0081-0.01772 0.0223-0.03125 0.03125-0.21731 0.1437-0.30517 0.40267-0.375 0.5625a0.16319 0.16319 0 0 0 0 0.03125c-0.03897 0.18927-0.10249 0.4096 0 0.65625 0.002 0.0098-0.0022 0.02152 0 0.03125 0.04618 0.20238 0.14279 0.40992 0.28125 0.5625 0.15207 0.14629 0.37213 0.23435 0.59375 0.25 0.21328 0.01699 0.37032-0.06738 0.5-0.125a0.16319 0.16319 0 0 0 0.03125 -0.03125 0.16319 0.16319 0 0 0 0.03125 0c0.02717-0.02503 0.08107-0.07447 0.15625-0.125s0.17382-0.08351 0.21875-0.21875a0.16319 0.16319 0 0 0 0 -0.03125 0.16319 0.16319 0 0 0 0 -0.03125 0.16319 0.16319 0 0 0 0 -0.03125c-0.0097-0.03811-0.0067-0.08845-0.03125-0.125-0.02454-0.03655-0.07252-0.07845-0.125-0.09375-0.10496-0.03059-0.17731 0.03418-0.21875 0.0625s-0.06879 0.04315-0.09375 0.0625-0.04334 0.03428-0.03125 0.03125a0.16319 0.16319 0 0 0 -0.03125 0c-0.08311 0.03616-0.19002 0.05473-0.28125 0.03125s-0.16034-0.07709-0.1875-0.15625a0.16319 0.16319 0 0 0 0 -0.03125c-0.109-0.19-0.15-0.411-0.095-0.624a0.16319 0.16319 0 0 0 0 -0.03125c0.01319-0.16328 0.10359-0.29568 0.25-0.34375 0.0085-0.000009 0.02307-0.0013 0.03125 0 0.03273 0.0054 0.05503 0.03082 0.09375 0.0625 0.0484 0.0396 0.10511 0.09262 0.15625 0.15625a0.16319 0.16319 0 0 0 0.03125 0.03125 0.16319 0.16319 0 0 0 0 0.03125c0.07313 0.04212 0.1954 0.03639 0.28125 0s0.10148-0.10392 0.125-0.15625c0.04704-0.10465 0.08616-0.20324 0.09375-0.21875 0.02977-0.07753-0.0098-0.19343-0.0625-0.25s-0.10878-0.07773-0.15625-0.09375c-0.09495-0.03204-0.18345-0.06069-0.1875-0.0625a0.16319 0.16319 0 0 0 -0.03125 0c-0.13367-0.03877-0.22103 0.0014-0.25 0a0.16319 0.16319 0 0 0 -0.03125 0zm-6.313 0.031a0.16319 0.16319 0 0 0 0 0.03125 0.16319 0.16319 0 0 0 -0.031 0.031 0.16319 0.16319 0 0 0 -0.031 0.032c-0.03514 0.08655-0.03053 0.21384 0.03125 0.28125s0.11806 0.08 0.15625 0.09375c0.01528 0.0055 0.02291-0.0039 0.03125 0 0.0042 0.002-0.0021 0.03037 0 0.03125v1.25c-0.03658 0.0187-0.08236 0.03313-0.125 0.0625-0.02132 0.01469-0.03841 0.03273-0.0625 0.0625s-0.07359 0.08617-0.0625 0.15625 0.05788 0.13333 0.09375 0.15625 0.08741 0.02088 0.125 0.03125a0.16319 0.16319 0 0 0 0.03125 0h1.4375a0.16319 0.16319 0 0 0 0.03125 0 0.16319 0.16319 0 0 0 0.03125 0 0.16319 0.16319 0 0 0 0.03125 -0.03125 0.16319 0.16319 0 0 0 0.03125 -0.03125 0.16319 0.16319 0 0 0 0.03125 -0.03125 0.16319 0.16319 0 0 0 0 -0.03125c0.03395-0.1889 0.02968-0.36363 0.0625-0.5a0.16319 0.16319 0 0 0 0 -0.03125 0.16319 0.16319 0 0 0 0 -0.03125 0.16319 0.16319 0 0 0 0 -0.03125 0.16319 0.16319 0 0 0 -0.03125 -0.03125 0.16319 0.16319 0 0 0 -0.03125 -0.03125 0.16319 0.16319 0 0 0 0 -0.03125c-0.06819-0.03988-0.16525-0.05144-0.25-0.03125s-0.12813 0.0795-0.15625 0.125c-0.04499 0.07281-0.05014 0.12996-0.0625 0.15625-0.001 0.0022-0.03036-0.0017-0.03125 0-0.0025 0.0016 0.0026 0.02978 0 0.03125-0.08648 0.04944-0.22919 0.02829-0.375 0-0.0014-0.0034 0.000167-0.000742 0-0.03125-0.000297-0.05424 0.01331-0.14902 0-0.25-0.00007-0.01578 0.000051-0.01625 0-0.03125-0.000153-0.045 0.000099-0.06931 0-0.09375a0.16319 0.16319 0 0 0 0.03125 0 0.16319 0.16319 0 0 0 0.03125 0c0.01388-0.0041 0.06726 0.01063 0.125 0.03125s0.11647 0.05992 0.25 0.03125a0.16319 0.16319 0 0 0 0.03125 0 0.16319 0.16319 0 0 0 0.03125 -0.03125 0.16319 0.16319 0 0 0 0.03125 -0.03125c0.04595-0.05419 0.07698-0.08927 0.09375-0.15625s0.01731-0.15557-0.03125-0.21875c-0.0259-0.0337-0.05993-0.04631-0.09375-0.0625 0.04706 0.0035 0.11595-0.01871 0.15625-0.03125a0.16319 0.16319 0 0 0 0.03 -0.032 0.16319 0.16319 0 0 0 0.031 -0.031 0.16319 0.16319 0 0 0 0.031 -0.031c0.02251-0.06989 0.04646-0.17784 0.0625-0.28125 0.01604-0.1034 0.01201-0.23052-0.0625-0.34375a0.16319 0.16319 0 0 0 -0.031 -0.032 0.16319 0.16319 0 0 0 -0.031 -0.031c-0.22699-0.09174-0.43778-0.01837-0.5625-0.03125a0.16319 0.16319 0 0 0 -0.03125 0h-0.875a0.16319 0.16319 0 0 0 -0.03125 0 0.16319 0.16319 0 0 0 -0.03125 0 0.16319 0.16319 0 0 0 -0.03125 0zm4 0a0.16319 0.16319 0 0 0 0 0.03125 0.16319 0.16319 0 0 0 -0.031 0.031 0.16319 0.16319 0 0 0 -0.031 0.032c-0.03514 0.08655-0.03053 0.21384 0.03125 0.28125s0.11806 0.08 0.15625 0.09375c0.01528 0.0055 0.02291-0.0039 0.03125 0 0.0042 0.002-0.0021 0.03037 0 0.03125v1.25c-0.03705 0.01941-0.07043 0.01885-0.125 0.0625-0.02046 0.01637-0.04066 0.05837-0.0625 0.09375s-0.05088 0.09448-0.03125 0.15625 0.05953 0.10444 0.09375 0.125 0.08787 0.02101 0.125 0.03125a0.16319 0.16319 0 0 0 0.03125 0h0.75a0.16319 0.16319 0 0 0 0.03125 0 0.16319 0.16319 0 0 0 0.03125 0 0.16319 0.16319 0 0 0 0.03 -0.031 0.16319 0.16319 0 0 0 0.032 -0.032 0.16319 0.16319 0 0 0 0.031 -0.031c0.01676-0.0417 0.03626-0.1035 0.03125-0.15625-0.005-0.05275-0.05908-0.09198-0.09375-0.125-0.069-0.066-0.119-0.085-0.156-0.094v-1.25c0.06467-0.03091 0.14162-0.06766 0.1875-0.125 0.01974-0.02467 0.01869-0.05277 0.03125-0.09375s0.02972-0.10074 0-0.15625-0.08231-0.11079-0.125-0.125-0.08302-0.000753-0.125 0h-0.75a0.16319 0.16319 0 0 0 -0.03125 0 0.16319 0.16319 0 0 0 -0.03125 0 0.16319 0.16319 0 0 0 -0.03125 0zm4.3438 0a0.16319 0.16319 0 0 0 0 0.03125 0.16319 0.16319 0 0 0 -0.03125 0.03125 0.16319 0.16319 0 0 0 -0.03125 0.03125c-0.01478 0.04035-0.03495 0.07604-0.03125 0.125s0.03033 0.12146 0.0625 0.15625c0.06433 0.06958 0.12142 0.08412 0.15625 0.09375 0.01742 0.0048 0.02471-0.0025 0.03125 0l0.375 1.6875a0.16319 0.16319 0 0 0 0 0.03125 0.16319 0.16319 0 0 0 0.03125 0.03125 0.16319 0.16319 0 0 0 0.03125 0.03125 0.16319 0.16319 0 0 0 0.03125 0.03125 0.16319 0.16319 0 0 0 0.03125 0 0.16319 0.16319 0 0 0 0.03125 0 0.16319 0.16319 0 0 0 0.03125 0c0.219-0.037 0.364-0.206 0.406-0.406 0.002-0.0097-0.0015-0.02144 0-0.03125l0.25-0.594 0.375 0.9375a0.16319 0.16319 0 0 0 0.03125 0.03125 0.16319 0.16319 0 0 0 0.03125 0.03125 0.16319 0.16319 0 0 0 0.03125 0.03125 0.16319 0.16319 0 0 0 0.0625 0 0.16319 0.16319 0 0 0 0.03125 0c0.21788-0.0581 0.36018-0.25742 0.375-0.46875 0.000713-0.01016-0.000143-0.02105 0-0.03125l0.282-1.282c0.04034-0.01614 0.09192-0.05324 0.15625-0.09375 0.02224-0.01401 0.06879-0.0036 0.09375-0.03125 0.06178 0.06741 0.11806 0.08 0.15625 0.09375 0.01528 0.0055 0.02291-0.0039 0.03125 0 0.0042 0.002-0.0021 0.03037 0 0.03125v1.25c-0.03658 0.0187-0.08236 0.03313-0.125 0.0625-0.02132 0.01469-0.03841 0.03273-0.0625 0.0625s-0.07359 0.08617-0.0625 0.15625 0.05788 0.13333 0.09375 0.15625 0.08741 0.02088 0.125 0.03125a0.16319 0.16319 0 0 0 0.03125 0h0.78125a0.16319 0.16319 0 0 0 0.03125 0 0.16319 0.16319 0 0 0 0.03125 0 0.16319 0.16319 0 0 0 0.03125 -0.03125 0.16319 0.16319 0 0 0 0.03125 -0.03125 0.16319 0.16319 0 0 0 0.03125 -0.03125c0.01518-0.04224 0.0071-0.1052 0-0.15625s-0.03115-0.09372-0.0625-0.125c-0.06269-0.06257-0.09442-0.08282-0.125-0.09375v-1.25c0.07639-0.0381 0.11546-0.10686 0.15625-0.1875 0.01511-0.02987 0.03124-0.04629 0.03125-0.09375 0.000005-0.04746-0.02217-0.11686-0.0625-0.15625-0.07057-0.06893-0.14478-0.07-0.21875-0.0625h-0.71875a0.16319 0.16319 0 0 0 -0.03125 0 0.16319 0.16319 0 0 0 -0.03125 0 0.16319 0.16319 0 0 0 -0.03125 0.03125 0.16319 0.16319 0 0 0 -0.03125 0.03125 0.16319 0.16319 0 0 0 -0.03125 0.03125c-0.03041-0.03466-0.05951-0.07619-0.09375-0.09375a0.16319 0.16319 0 0 0 -0.03125 0 0.16319 0.16319 0 0 0 -0.03125 0h-0.625a0.16319 0.16319 0 0 0 -0.03125 0 0.16319 0.16319 0 0 0 -0.03125 0 0.16319 0.16319 0 0 0 -0.03125 0.03125 0.16319 0.16319 0 0 0 -0.03125 0.03125 0.16319 0.16319 0 0 0 -0.03125 0.03125c-0.01833 0.04177-0.03196 0.07438-0.03125 0.125 0.000705 0.05062 0.03082 0.11838 0.0625 0.15625 0.06336 0.07573 0.11864 0.08313 0.15625 0.09375l-0.092 0.343-0.282-0.718a0.16319 0.16319 0 0 0 -0.031 -0.032 0.16319 0.16319 0 0 0 -0.031 -0.031 0.16319 0.16319 0 0 0 -0.031 -0.031c-0.07484-0.02516-0.17603-0.0247-0.25 0s-0.12322 0.07433-0.15625 0.125c-0.05944 0.0912-0.07656 0.18209-0.09375 0.25-0.0019 0.0075 0.002 0.02426 0 0.03125l-0.125 0.375c-0.0285-0.11389-0.07236-0.23215-0.09375-0.34375 0.07075-0.03774 0.13912-0.10931 0.15625-0.1875s-0.01178-0.1645-0.09375-0.21875c-0.07188-0.04758-0.14184-0.04864-0.21875-0.03125h-0.625a0.16319 0.16319 0 0 0 -0.03125 0 0.16319 0.16319 0 0 0 -0.03125 0 0.16319 0.16319 0 0 0 -0.03125 0zm4.0938 0a0.16319 0.16319 0 0 0 0 0.03125 0.16319 0.16319 0 0 0 -0.03125 0.03125 0.16319 0.16319 0 0 0 -0.03125 0.03125c-0.03389 0.08312-0.02422 0.21521 0.03125 0.28125s0.11961 0.07764 0.15625 0.09375c0.01466 0.0064 0.02242-0.0046 0.03125 0 0.0044 0.0023-0.0027 0.02985 0 0.03125v1.25c-0.03658 0.0187-0.08236 0.03313-0.125 0.0625-0.02132 0.01469-0.03841 0.03273-0.0625 0.0625s-0.07359 0.08617-0.0625 0.15625 0.05788 0.13333 0.09375 0.15625 0.08741 0.02088 0.125 0.03125a0.16319 0.16319 0 0 0 0.03125 0h0.59375a0.16319 0.16319 0 0 0 0.03125 0 0.16319 0.16319 0 0 0 0.03125 0 0.16319 0.16319 0 0 0 0.03 -0.031 0.16319 0.16319 0 0 0 0.032 -0.032 0.16319 0.16319 0 0 0 0.031 -0.031c0.01635-0.04099 0.03743-0.10326 0.03125-0.15625-0.0062-0.05299-0.05933-0.09369-0.09375-0.125-0.06883-0.06262-0.12167-0.05343-0.15625-0.0625v-0.59375c0.22183 0.3151 0.42692 0.63394 0.6875 0.9375a0.16319 0.16319 0 0 0 0.03125 0.03125c0.08127 0.06485 0.16346 0.10208 0.28125 0.125 0.05889 0.01146 0.13026 0.01886 0.21875-0.03125 0.04424-0.02505 0.07915-0.07162 0.09375-0.125 0.01095-0.04003 0.0059-0.06016 0-0.09375v-1.5624c0.03706-0.01941 0.07043-0.01885 0.125-0.0625 0.02046-0.01637 0.04066-0.05837 0.0625-0.09375s0.05088-0.09448 0.03125-0.15625-0.05953-0.10444-0.09375-0.125-0.08787-0.02101-0.125-0.03125a0.16319 0.16319 0 0 0 -0.03125 0h-0.5625a0.16319 0.16319 0 0 0 -0.03125 0 0.16319 0.16319 0 0 0 -0.03125 0 0.16319 0.16319 0 0 0 -0.03125 0.03125 0.16319 0.16319 0 0 0 -0.03125 0.03125 0.16319 0.16319 0 0 0 -0.03125 0.03125c-0.01694 0.04112-0.03456 0.0744-0.03125 0.125 0.0033 0.0506 0.03139 0.12163 0.0625 0.15625 0.06221 0.06925 0.1213 0.08269 0.15625 0.09375v0.59375c-0.24046-0.33309-0.47348-0.67144-0.71875-1a0.16319 0.16319 0 0 0 -0.033 -0.031 0.16319 0.16319 0 0 0 -0.031 -0.031 0.16319 0.16319 0 0 0 -0.03125 0 0.16319 0.16319 0 0 0 -0.03125 0h-0.5a0.16319 0.16319 0 0 0 -0.03125 0 0.16319 0.16319 0 0 0 -0.03125 0 0.16319 0.16319 0 0 0 -0.03125 0zm-9.594 0.469c0.02955 0.0043 0.06911-0.0082 0.09375 0 0.06674 0.02234 0.0976 0.04006 0.125 0.09375 0.02679 0.06021 0.05755 0.19552 0.03125 0.28125s-0.05555 0.11866-0.125 0.125c-0.03272-0.01066-0.06133-0.02601-0.09375-0.03125-0.0088-0.0014-0.02232 0.0013-0.03125 0v-0.46875zm-1.969 0.031c0.10608 0.0011 0.20926 0.02065 0.28125 0.03125 0.0079 0.0012 0.02395-0.0015 0.03125 0 0.0018 0.01409-0.0026 0.03682 0 0.0625 0.0043 0.0428-0.0121 0.1154 0.0625 0.1875 0.01119 0.01082 0.01745 0.02311 0.03125 0.03125-0.04218-0.0064-0.08196-0.0056-0.125 0-0.02752-0.0075-0.03794 0.0025-0.0625 0-0.08597-0.0087-0.16603-0.0022-0.21875 0v-0.3125z" xlink:href="#path9012" transform="translate(1.185)"/>
    </g>
    <path id="path5790-4" style="color:#000000" d="m22.157 16.23c0.06635-0.14962 0.18507-0.27539 0.33062-0.35024s0.31691-0.09827 0.47721-0.06521c0.18589 0.03834 0.35456 0.15282 0.46032 0.31042s0.1478 0.35633 0.11669 0.54357c-0.02512 0.15121-0.09702 0.29431-0.20334 0.40472s-0.24661 0.18765-0.39676 0.21846h-2.3161" stroke="#000" stroke-linecap="round" stroke-width=".65" fill="none"/>
  </g>
  <g id="layer4" opacity=".6" fill-rule="evenodd">
    <rect id="rect3592-4" style="color:#000000" rx="2" ry="2" height="43" width="59" y="2.5" x="2.5" fill="url(#linearGradient8880)"/>
    <path id="rect3592-4-6" d="m6.5 4.5c-1.108 0-2 0.892-2 2v17.796c7.556-4.567 15.984-4.452 27.5-4.452s19.944-0.11493 27.5 4.4519v-17.796c0-1.108-0.892-2-2-2h-51z" style="color:#000000" fill="url(#linearGradient9100)"/>
  </g>
  <metadata>
    <rdf:RDF>
      <cc:Work>
        <dc:format>image/svg+xml</dc:format>
        <dc:type rdf:resource="http://purl.org/dc/dcmitype/StillImage"/>
        <cc:license rdf:resource="http://creativecommons.org/licenses/publicdomain/"/>
        <dc:publisher>
          <cc:Agent rdf:about="http://openclipart.org/">
            <dc:title>Openclipart</dc:title>
          </cc:Agent>
        </dc:publisher>
        <dc:title>Certificate</dc:title>
        <dc:date>2009-10-15T18:23:51</dc:date>
        <dc:description>attestation, attestation, blue, blue, certificate, certificate, clip art, clipart, epic, epic, image, license, license, media, paper, paper, png, public domain, signature, signature, svg, win, win, </dc:description>
        <dc:source>http://openclipart.org/detail/27806/certificate-by-doofi-27806</dc:source>
        <dc:creator>
          <cc:Agent>
            <dc:title>DooFi</dc:title>
          </cc:Agent>
        </dc:creator>
        <dc:subject>
          <rdf:Bag>
            <rdf:li>attestation</rdf:li>
            <rdf:li>blue</rdf:li>
            <rdf:li>certificate</rdf:li>
            <rdf:li>clip art</rdf:li>
            <rdf:li>clipart</rdf:li>
            <rdf:li>epic</rdf:li>
            <rdf:li>image</rdf:li>
            <rdf:li>license</rdf:li>
            <rdf:li>media</rdf:li>
            <rdf:li>paper</rdf:li>
            <rdf:li>png</rdf:li>
            <rdf:li>public domain</rdf:li>
            <rdf:li>signature</rdf:li>
            <rdf:li>svg</rdf:li>
            <rdf:li>win</rdf:li>
          </rdf:Bag>
        </dc:subject>
      </cc:Work>
      <cc:License rdf:about="http://creativecommons.org/licenses/publicdomain/">
        <cc:permits rdf:resource="http://creativecommons.org/ns#Reproduction"/>
        <cc:permits rdf:resource="http://creativecommons.org/ns#Distribution"/>
        <cc:permits rdf:resource="http://creativecommons.org/ns#DerivativeWorks"/>
      </cc:License>
    </rdf:RDF>
  </metadata>
</svg>
