<?xml version="1.0" encoding="UTF-8"?>
<svg viewBox="0 0 531.49603 531.49603" xmlns="http://www.w3.org/2000/svg" xmlns:xlink="http://www.w3.org/1999/xlink">
 <defs>
  <filter id="q">
   <feGaussianBlur stdDeviation="8.51671"/>
  </filter>
  <filter id="p">
   <feGaussianBlur stdDeviation="9.27417"/>
  </filter>
  <filter id="o">
   <feGaussianBlur stdDeviation="3.57186"/>
  </filter>
  <filter id="c">
   <feGaussianBlur stdDeviation="1.19185"/>
  </filter>
  <filter id="s">
   <feGaussianBlur stdDeviation="1.58825"/>
  </filter>
  <filter id="r">
   <feGaussianBlur stdDeviation="1.61218"/>
  </filter>
  <filter id="n" x="-.16982" y="-.16143" width="1.3396" height="1.3229">
   <feGaussianBlur stdDeviation="21.40194"/>
  </filter>
  <filter id="v" x="-1.0291" y="-.90933" width="3.0582" height="2.8187">
   <feGaussianBlur stdDeviation="37.83023"/>
  </filter>
  <filter id="u" x="-.4304" y="-.26173" width="1.8608" height="1.5235">
   <feGaussianBlur stdDeviation="7.40144"/>
  </filter>
  <filter id="t" x="-.74525" y="-.48875" width="2.4905" height="1.9775">
   <feGaussianBlur stdDeviation="15.44582"/>
  </filter>
  <linearGradient id="b">
   <stop stop-color="#fff" stop-opacity="0" offset="0"/>
   <stop stop-color="#fff" stop-opacity=".99068" offset=".95437"/>
   <stop stop-color="#fff" stop-opacity="0" offset="1"/>
  </linearGradient>
  <linearGradient id="a">
   <stop stop-color="#fff" stop-opacity="0" offset="0"/>
   <stop stop-color="#fff" stop-opacity=".1118" offset=".56972"/>
   <stop stop-color="#fff" stop-opacity=".99068" offset=".95437"/>
   <stop stop-color="#fff" stop-opacity="0" offset="1"/>
  </linearGradient>
  <radialGradient id="l" cx="391.94" cy="414.59" r="354.56" gradientTransform="matrix(.13264 .20915 -.2141 .13578 223.15 -28.8)" gradientUnits="userSpaceOnUse">
   <stop stop-color="#fff" stop-opacity="0" offset="0"/>
   <stop stop-color="#fff" stop-opacity="0" offset=".86002"/>
   <stop stop-color="#fff" stop-opacity=".99068" offset=".95437"/>
   <stop stop-color="#fff" stop-opacity="0" offset="1"/>
  </radialGradient>
  <radialGradient id="g" cx="391.94" cy="414.59" r="354.56" gradientTransform="matrix(.023183 .036556 -.037422 .023732 308.78 161.98)" gradientUnits="userSpaceOnUse">
   <stop stop-color="#fff" stop-opacity=".99068" offset="0"/>
   <stop stop-color="#fff" stop-opacity=".29814" offset=".28897"/>
   <stop stop-color="#fff" stop-opacity="0" offset="1"/>
  </radialGradient>
  <radialGradient id="e" cx="391.94" cy="414.59" r="354.56" gradientTransform="matrix(.0044913 .0070821 -.0072499 .0045977 266 157.93)" gradientUnits="userSpaceOnUse">
   <stop stop-color="#fff" stop-opacity=".99068" offset="0"/>
   <stop stop-color="#fff" stop-opacity="0" offset="1"/>
  </radialGradient>
  <radialGradient id="m" cx="391.94" cy="414.59" r="354.56" gradientTransform="matrix(.1028 .16209 -.16593 .10523 340.35 80.908)" gradientUnits="userSpaceOnUse" xlink:href="#a"/>
  <radialGradient id="k" cx="391.94" cy="414.59" r="354.56" gradientTransform="matrix(.049488 .078036 -.079885 .05066 168.18 39.87)" gradientUnits="userSpaceOnUse" xlink:href="#a"/>
  <radialGradient id="j" cx="391.94" cy="414.59" r="354.56" gradientTransform="matrix(.047432 .074795 -.076567 .048556 311.8 132.49)" gradientUnits="userSpaceOnUse" xlink:href="#a"/>
  <radialGradient id="i" cx="391.94" cy="414.59" r="354.56" gradientTransform="matrix(.031323 .049392 -.050562 .032065 325.77 265.43)" gradientUnits="userSpaceOnUse" xlink:href="#b"/>
  <radialGradient id="h" cx="391.94" cy="414.59" r="354.56" gradientTransform="matrix(.14457 .22797 -.23337 .148 399.88 76.329)" gradientUnits="userSpaceOnUse" xlink:href="#a"/>
  <radialGradient id="f" cx="391.94" cy="414.59" r="354.56" gradientTransform="matrix(.057759 .091078 -.093236 .059127 243.38 77.358)" gradientUnits="userSpaceOnUse" xlink:href="#a"/>
  <radialGradient id="d" cx="391.94" cy="414.59" r="354.56" gradientTransform="matrix(.031323 .049392 -.050562 .032065 421.58 323.95)" gradientUnits="userSpaceOnUse" xlink:href="#b"/>
 </defs>
 <g transform="translate(-39.916 95.914)">
  <path d="m39.916-95.914h531.43v531.43h-531.43z"/>
 </g>
 <path transform="matrix(1.1486 0 0 1.1486 -450.45 66.23)" d="m719.65 260.9-51.645-42.653 42.558 53.754-50.535-50.732 33.874 53.707-44.81-56.434 48.087 65.845-40.733-54.408 34.514 59.749-49.536-57.436 33.156 60.052-32.089-57.829 20.975 54.053-17.332-57.793 17.015 63.654-31.87-63.431 19.684 72.999-21.791-67.16 11.914 65.237-16.307-64.798 12.807 60.117-20.308-69.181 12.852 69.145-11-66.664-1.7833 66.723-3.7692-70.065-1.5419 74.707 1.9103-68.617-13.353 71.858 8.326-66.543-10.282 69.869 1.4119-82.394-21.2 73.363 25.386-65.216-29.681 62.321 19.057-68.604-29.04 64.782 25.051-57.414-27.28 59.99 30.909-71.311-42.717 69.188 35.695-75.209-35.013 60.071 21.752-57.844-37.616 57.041 45.428-61.855-50.47 56.567 39.103-59.536-40.39 56.083 34.634-58.032-44.158 45.706 48.225-40.477-50.534 36.99 45.83-44.014-51.621 41.651 55.573-48.258-69.704 45.935 65.342-49.757-59.945 37.998 59.446-37.353-65.509 30.708 62.041-32.396-72.796 26.706 64.199-32.597-57.811 18.504 61.089-23.072-67.287 22.029 67.302-33.347-74.431 21.456 75.507-13.5-67.422 8.8077 58.31-12.987-65.249 1.027 73.788-11.696-68.315 1.894 68.643-10.423-73.269-4.4294 72.313 10.194-70.563-14.137 67.811 5.5671-71.85-16.25 72.907 4.2062-66.763-11.302 67.526 16.374-61.367-27.523 59.73 20.572-57.451-28.329 56.166 22.369-54.963-22.087 62.078 13.966-64.124-22.346 67.63 29.028-62.874-34.923 66.919 30.454-59.606-47.318 54.44 41.897-48.246-42.359 59.553 37.277-50.552-49.989 47.051 46.301-43.865-43.877 45.478 48.634-41.592-52.858 49.555 37.961-41.423-46.292 38.869 55.453-34.597-58.549 46.914 46.572-34.274-53.315 29.384 58.838-19.426-61.572 24.555 54.221-20.989-68.97 22.091 67.522-21.761-59.988 31.856 62.245-19.67-70.292 21.791 64.119-11.928-63.383 16.321 64.464-12.581-67.079 13.887 67.542 7.2854-68.692 4.5926 67.732 2.7635-69.202 2.789 72.544 1.7678-70.979-2.1364 63.369 14.334-57.566-3.1114 59.332 7.7052-57.833-12.579 56.961 15.759-60.71-6.2001 69 20.71-64.801-23.817 68.044 36.575-70.342-25.051 71.144 31.413-68.764-28.86 73.77 36.535-64.393-29.5 57.87 26.029-50.007-32.467 58.158 43.585-55.208-31.698 48.125 37.466-49.896-32.295 57.993 46.571-48.668-54.546 50.617 57.903-42.999-42.058 46.706 47.745-45.786-56.772 51.29 59.184-46.359-52.195 45.69 52.581-33.864-51.598 40.254 63.337-39.379-56.671 44.963 65.509-30.708-62.027 32.062 66.601-20.056-63.233 30.452 63.04-23.009-67.27 17.177 59.738-16.134-53.572 21.137 61.441-2.9084-62.531 7.4973 64.633-3.8734-61.476 5.8858 68.429 5.7401-70.273-1.8169 68.315-0.37377-75.565 10.401 70.48 9.3637-69.524-1.3984 73.955 11.236-78.738-7.795 69.287 11.182-62.055-13.946 72.19 24.924-81.242-15.187 75.309 17.855-73.446-19.386 70.94 34.105-75.337-24.967 68.193 25.224-62.304-20.734 64.11 36.411-74.425-27.819 69.894 25.232-69.194-24.43 54.12 41.607-54.214-36.649 48.006 38.965-52.005-46.213 50.566 49.654-54.613-37.031 57.595 42.356z" fill="#fff" filter="url(#r)" opacity=".05"/>
 <path transform="matrix(1.023 0 0 1.023 -176.51 -152.16)" d="m431.28 280.38c-56.74-0.51054-109.76 44.696-118.62 100.42-8.7482 47.308 13.393 99.196 54.336 124.37 40.548 26.142 96.836 25.825 135.94-2.9507 36.505-25.444 57.719-71.796 50.875-116.12-5.7587-44.243-37.687-84.604-80.5-98.844-13.461-4.7025-27.719-7.1212-42.031-6.875z" fill="#fff" filter="url(#q)"/>
 <path transform="matrix(1.0115 0 0 1.0115 -165.6 -151.98)" d="m562.86 402.36c0 71.797-58.203 130-130 130s-130-58.203-130-130 58.203-130 130-130 130 58.203 130 130z"/>
 <path transform="matrix(.74012 0 0 .74012 -22.336 28.545)" d="m273.19 179.56c-41.976 32.505-69.031 83.372-69.031 140.53 0 98.069 79.588 177.66 177.66 177.66 48.629 0 92.721-19.56 124.81-51.25-30.043 23.264-67.715 37.125-108.62 37.125-98.069 0-177.69-79.588-177.69-177.66 0-49.439 20.249-94.189 52.875-126.41z" fill="#fff" filter="url(#p)"/>
 <path transform="matrix(.74012 0 0 .74012 -22.336 28.545)" d="m249.41 204.72c-38.012 42.784-52.426 104.96-37.459 160.22 15.223 59.698 64.307 109.11 123.9 124.72 48.309 13.268 102.02 4.6531 143.5-23.469-52.759 27.369-119.59 25.616-170.75-4.375-51.795-29.296-87.021-85.67-89.975-145.31-2.4563-39.728 8.8384-79.936 31.443-112.53l-0.65625 0.75z" fill="#fff" filter="url(#o)"/>
 <path transform="matrix(.74012 0 0 .74012 -22.336 28.545)" d="m273.19 179.56c-41.976 32.505-69.031 83.372-69.031 140.53 0 98.069 79.588 177.66 177.66 177.66 48.629 0 92.721-19.56 124.81-51.25-30.043 23.264-67.715 37.125-108.62 37.125-98.069 0-177.69-79.588-177.69-177.66 0-49.439 20.249-94.189 52.875-126.41z" fill="#fff" filter="url(#n)"/>
 <path transform="matrix(.74012 0 0 .74012 -22.336 28.545)" d="m232.31 182.78c-18.857-0.07541-49.356 29.453-55.883 47.787-6.0726 20.725 15.853 22.622 30.11 36.963 5.5188 5.5209 11.681 10.484 18.054 15.063 15.459-40.291 33.946-61.625 37.42-93.783-13.604 0.00998-16.097-6.0867-29.701-6.0297z" fill="#fff" fill-rule="evenodd" filter="url(#v)"/>
 <path transform="matrix(.74012 0 0 .74012 -22.336 28.545)" d="m217.18 281.62c-29.348-42.335-7.3526-77.808 36.365-75.761-0.08283 12.709-6.7094 47.262-36.365 75.761z" fill="#fff" fill-rule="evenodd" filter="url(#u)"/>
 <path transform="matrix(.74012 0 0 .74012 -22.336 28.545)" d="m213.14 321.01c-42.48-67.589 5.7794-134.38 49.497-132.33-0.08283 12.709-19.841 103.83-49.497 132.33z" fill="#fff" fill-rule="evenodd" filter="url(#t)"/>
 <g transform="translate(-39.916 95.914)">
  <path d="m182.79 92.992h90.102v91.999h-90.102z" fill="url(#f)" opacity=".02"/>
  <path d="m84.006 7.1014h206.91v211.26h-206.91z" fill="url(#l)" opacity=".07356"/>
 </g>
 <g transform="translate(-39.916 95.914)">
  <path d="m232.51 108.73h160.36v163.73h-160.36z" fill="url(#m)" opacity=".07356"/>
  <path d="m262.03 145.33h73.993v75.551h-73.993z" fill="url(#j)" opacity=".07356"/>
  <path transform="matrix(.74012 0 0 .74012 17.58 -67.368)" d="m292.91 273.91h48.862v49.891h-48.862z" fill="url(#i)" filter="url(#c)" opacity=".07356"/>
  <path d="m284.46 168.25h36.164v36.925h-36.164z" fill="url(#g)"/>
  <path d="m261.29 159.15h7.0062v7.1537h-7.0062z" fill="url(#e)"/>
  <path transform="matrix(.91995 0 0 .91995 -53.817 -129.39)" d="m388.72 332.43h48.862v49.891h-48.862z" fill="url(#d)" filter="url(#c)" opacity=".07356"/>
  <path d="m248.22 115.46h225.52v230.27h-225.52z" fill="url(#h)" opacity=".03"/>
  <path d="m116.27 53.266h77.199v78.824h-77.199z" fill="url(#k)" opacity=".07356"/>
 </g>
 <path transform="matrix(1.0382 0 0 1.0382 -495.55 29.916)" d="m678.7 287.89-57.851-112.93 43.683 119.92-43.717-119.46 26.373 125.86-27.47-125.14 10.115 127.82-12.34-127.52-3.8296 126.11 2.0981-125.66-20.07 124.39 19.333-126.9-36.249 122.81 35.088-122.75-50.726 117.77 50.729-116.44-66.053 108.78 64.558-109.33-79.196 101.24 77.208-102.68-88.766 90.609 87.596-91.041-100.53 76.613 101.67-78.316-112.19 65.996 110.07-66.37-116.21 49.974 117.23-52.327-124.74 36.506 125.02-35.751-127.32 19.731 125.95-22.375-129.15 3.0004 128.38-4.1876-126-13.094 125.57 11.985-122.77-27.274 125.24 25.1-122.13-41.886 122.65 42.993-114.3-58.407 113.78 57.693-107.32-74.599 106.46 72.464-93.46-84.93 95.205 85.333-83.256-97.488 85.14 94.282-71.521-104.22 72.097 105.85-59.429-115.58 60.64 114.05-43.729-120.97 44.998 121.69-27.652-125.11 28.752 124.62-11.355-129.54 12.34 127.52 3.8324-128.32-3.6084 129.59 21.726-127.59-19.481 128.68 34.696-124.89-35.043 123.5 52.189-117.49-49.447 118.98 66.007-109.83-64.512 110.38 77.917-101.1-77.163 100.98 90.105-88.908-89.539 89.277 101.08-77.533-100.99 78.04 108.92-64.756-108.03 66.089 118.05-50.871-117.83 52.264 124.1-35.484-124.23 35.93 127.17-18.49-125.95 19.932 128.47-3.0282-128.94 5.1747 126 13.398-126.93-11.981 125.93 28.003-125.8-27.097 121.45 44.842-121.97-43.81 113.62 58.988-114.34-59.215 106.52 73.683-107.16-72.745 96.209 85.167-97.204-81.797 84.618 95.041-83.903-95.849 71.479 106.15-73.141-105.02 56.489 113.27z" fill="#fff" filter="url(#s)" opacity=".03448"/>
</svg>
