<?xml version="1.0" ?><!DOCTYPE svg  PUBLIC '-//W3C//DTD SVG 1.1//EN'  'http://www.w3.org/Graphics/SVG/1.1/DTD/svg11.dtd'><svg enable-background="new 0 0 70 70" id="Layer_1" version="1.1" viewBox="0 0 70 70" xml:space="preserve" xmlns="http://www.w3.org/2000/svg" xmlns:xlink="http://www.w3.org/1999/xlink"><g><path d="M18.609375,66.0800781c-0.7612305,0-1.5507813-0.0507813-2.3203125-0.2392578   c-1.4667969-0.359375-2.6474609-1.2041016-3.2397461-2.3193359c-0.5473633-1.0322266-0.5688477-2.2158203-0.5864258-3.1669922   L11.847168,27.2675781c-0.0078125-0.4140625,0.3217773-0.7558594,0.7358398-0.7636719   c0.4296875-0.0214844,0.7563477,0.3222656,0.7641602,0.7363281l0.6157227,33.0869141   c0.0151367,0.8320313,0.0322266,1.7753906,0.4116211,2.4912109c0.3916016,0.7373047,1.2192383,1.3076172,2.2709961,1.5654297   c1.03125,0.2529297,2.1572266,0.2060547,3.2475586,0.1611328c1.4038086-0.0576172,2.8393555-0.1865234,3.6206055-1.0654297   c0.7080078-0.7939453,0.7597656-2.0527344,0.7514648-3.3818359l-0.1914063-33.1806641   c-0.0024414-0.4140625,0.331543-0.7519531,0.7456055-0.7539063c0.0014648,0,0.0029297,0,0.0043945,0   c0.4121094,0,0.7475586,0.3330078,0.75,0.7460938l0.1914063,33.1796875   c0.0092773,1.5673828-0.0698242,3.1972656-1.1308594,4.3886719c-1.171875,1.3173828-3.0302734,1.4990234-4.6801758,1.5654297   C19.5239258,66.0615234,19.0722656,66.0800781,18.609375,66.0800781z" fill="#373684"/><path d="M19.0102539,65.75c-0.0024414,0-0.0053711,0-0.0083008,0   c-0.4140625-0.0048828-0.7460938-0.34375-0.7416992-0.7578125l0.2172852-19.8310547   c0.0043945-0.4121094,0.3393555-0.7421875,0.75-0.7421875c0.0024414,0,0.0053711,0,0.0083008,0   c0.4140625,0.0048828,0.7460938,0.34375,0.7416992,0.7578125l-0.2172852,19.8310547   C19.7558594,65.4199219,19.4208984,65.75,19.0102539,65.75z" fill="#373684"/><path d="M11.4101563,43.7080078c-1.4150391,0-2.8374023-0.6972656-3.6450195-1.8642578   c-0.8237305-1.1904297-0.9677734-2.6435547-1.0449219-4.0292969c-0.2670898-4.8310547-0.1396484-9.7158203,0.3793945-14.5205078   c0.1533203-1.4238281,0.3896484-2.9052734,1.4204102-3.9990234c0.8842773-0.9375,2.1303711-1.3242188,3.3447266-1.6025391   c3.2314453-0.7382813,6.5493164-1.0253906,9.859375-0.8544922c1.5834961,0.0830078,3.6293945,0.296875,5.4106445,1.2197266   c1.9248047,0.9980469,3.2514648,2.7646484,3.4628906,4.6113281c0.074707,0.6552734,0.0214844,1.3125-0.0297852,1.9482422   c-0.0844727,1.0478516-0.1577148,1.9541016,0.3276367,2.5957031c0.5239258,0.6923828,1.5673828,0.8183594,2.1420898,0.8310547   c0.4335938,0.0058594,0.8652344-0.0234375,1.2983398-0.0546875c0.5766602-0.0429688,1.1723633-0.0878906,1.7856445-0.0429688   c1.4663086,0.1025391,2.628418,0.7431641,3.1879883,1.7568359c0.3735352,0.6748047,0.4462891,1.4892578,0.2041016,2.2949219   c-0.3032227,1.0087891-1.050293,1.9072266-1.9990234,2.4033203c-1.5239258,0.796875-3.2905273,0.7070313-4.7114258,0.6347656   c-0.5136719-0.0253906-1.0532227-0.0273438-1.6015625-0.0292969C29.1337891,35,26.7905273,34.9921875,25.0517578,33.6953125   c-0.3320313-0.2480469-0.4003906-0.7177734-0.152832-1.0498047c0.2470703-0.3320313,0.7177734-0.3984375,1.0493164-0.1533203   c1.3422852,1.0019531,3.3330078,1.0087891,5.2583008,1.0146484c0.5727539,0.0019531,1.1352539,0.0039063,1.671875,0.03125   c1.3012695,0.0664063,2.7797852,0.140625,3.9418945-0.4667969c0.5795898-0.3027344,1.0732422-0.8935547,1.2568359-1.5048828   c0.0883789-0.2939453,0.1459961-0.7294922-0.0800781-1.1376953c-0.3051758-0.5517578-1.0454102-0.9208984-1.980957-0.9863281   c-0.5043945-0.0332031-1.0224609,0.0029297-1.5703125,0.0429688C33.9799805,29.5195313,33.5,29.5517578,33.0039063,29.5439453   c-1.4609375-0.0341797-2.6342773-0.5400391-3.3046875-1.4267578c-0.8300781-1.0976563-0.7216797-2.4384766-0.6264648-3.6210938   c0.0478516-0.5898438,0.0927734-1.1464844,0.034668-1.6572266c-0.1552734-1.3564453-1.1757813-2.6787109-2.6630859-3.4492188   c-1.5170898-0.7871094-3.2768555-0.9746094-4.7983398-1.0537109c-3.1757813-0.1669922-6.3515625,0.1103516-9.4462891,0.8193359   c-1.137207,0.2597656-2.0126953,0.5585938-2.5878906,1.1689453c-0.7119141,0.7548828-0.8945313,1.9599609-1.0209961,3.1298828   c-0.5102539,4.7246094-0.6357422,9.5273438-0.3725586,14.2773438c0.0673828,1.2207031,0.1782227,2.3886719,0.7802734,3.2587891   c0.6655273,0.9619141,1.9692383,1.4384766,3.0981445,1.1279297c0.3994141-0.1054688,0.8115234,0.1259766,0.9208984,0.5263672   c0.1088867,0.3994141-0.1264648,0.8115234-0.5263672,0.9208984C12.1386719,43.6621094,11.7744141,43.7080078,11.4101563,43.7080078   z" fill="#373684"/><path d="M19.1206055,15.9150391L19.1206055,15.9150391c-1.3344727,0-2.6245117-0.4482422-3.6333008-1.2617188   c-1.4941406-1.2060547-2.2998047-3.140625-2.1025391-5.0507813c0.2172852-2.1083984,1.6953125-4.0273438,3.6787109-4.7763672   c1.9487305-0.734375,4.3911133-0.2568359,5.9169922,1.1542969c1.5561523,1.4384766,2.2050781,3.7724609,1.6142578,5.8076172   c-0.5200195,1.7949219-1.9477539,3.2714844-3.7255859,3.8525391   C20.3120117,15.8232422,19.7236328,15.9150391,19.1206055,15.9150391z M19.0439453,5.9716797   c-0.5083008,0-0.996582,0.0869141-1.4506836,0.2578125c-1.4643555,0.5527344-2.5561523,1.9707031-2.7163086,3.5273438   c-0.1435547,1.3886719,0.4658203,2.8525391,1.5522461,3.7285156c1.065918,0.8583984,2.6699219,1.1542969,3.9741211,0.7294922   c1.2924805-0.4228516,2.3725586-1.5390625,2.7509766-2.8447266c0.4360352-1.5029297-0.0429688-3.2255859-1.1923828-4.2880859   C21.1987305,6.3759766,20.1352539,5.9716797,19.0439453,5.9716797z" fill="#373684"/><path d="M49.7905273,38.8642578c-7.175293,0-15.4907227-0.1611328-16.0820313-0.8925781   c-0.4682617-0.5791016-0.5019531-1.4931641-0.5351563-2.3779297c-0.0146484-0.3935547-0.0283203-0.765625-0.078125-1.0458984   c-0.0727539-0.4082031,0.199707-0.796875,0.6074219-0.8691406C34.1113281,33.609375,34.5,33.8789063,34.5717773,34.2861328   c0.0678711,0.3828125,0.0844727,0.8242188,0.1005859,1.2509766c0.0151367,0.4101563,0.0390625,1.0527344,0.1381836,1.3583984   c2.0043945,0.4130859,15.9790039,0.6259766,25.4389648,0.3701172c1.3237305-0.0341797,2.7963867-0.1484375,3.5229492-1.0664063   c0.5297852-0.6689453,0.5834961-1.6552734,0.5961914-2.78125l0.125-11.2236328   c0.0200195-1.7558594-0.059082-3.7148438-1.2543945-4.7431641c-0.9360352-0.8046875-2.3759766-0.8837891-3.8935547-0.8974609   l-20.9145508-0.1845703c-1.2402344-0.0039063-2.4609375,0.0830078-3.0058594,0.8330078   c-0.3530273,0.4853516-0.3901367,1.2080078-0.3999023,2.0322266l-0.1069336,9.0234375   c-0.0048828,0.4111328-0.3398438,0.7412109-0.75,0.7412109c-0.0029297,0-0.0058594,0-0.0087891,0   c-0.4140625-0.0048828-0.7460938-0.3447266-0.7412109-0.7587891l0.1069336-9.0234375   c0.0102539-0.8378906,0.0239258-1.9853516,0.6870117-2.8974609c0.9443359-1.296875,2.5878906-1.4433594,4.2319336-1.4501953   l20.9150391,0.1845703c1.8066406,0.015625,3.5380859,0.125,4.8579102,1.2607422   c1.684082,1.4472656,1.7998047,3.8027344,1.7763672,5.8974609l-0.125,11.2236328   c-0.012207,1.0849609-0.0288086,2.5703125-0.9204102,3.6953125c-1.2226563,1.5439453-3.4580078,1.6025391-4.6591797,1.6347656   C60.1787109,38.7685547,55.3232422,38.8642578,49.7905273,38.8642578z" fill="#373684"/><path d="M60.2495117,20.6132813c-0.0024414,0-0.0053711,0-0.0083008,0l-22.7470703-0.2529297   c-0.4140625-0.0048828-0.7460938-0.34375-0.7416992-0.7587891c0.0043945-0.4111328,0.3393555-0.7412109,0.75-0.7412109   c0.0024414,0,0.0053711,0,0.0083008,0l22.7470703,0.2529297c0.4140625,0.0048828,0.7460938,0.34375,0.7416992,0.7587891   C60.9951172,20.2832031,60.6601563,20.6132813,60.2495117,20.6132813z" fill="#373684"/><path d="M37.668457,24.9267578c-0.4052734,0-0.7392578-0.3232422-0.7495117-0.7314453   c-0.0102539-0.4140625,0.3173828-0.7578125,0.7314453-0.7685547l8.8320313-0.2197266   c0.3911133,0.0087891,0.7578125,0.3173828,0.7685547,0.7314453c0.0102539,0.4140625-0.3173828,0.7578125-0.7314453,0.7685547   L37.6875,24.9267578C37.6811523,24.9267578,37.6748047,24.9267578,37.668457,24.9267578z" fill="#373684"/><path d="M39.2294922,32.0224609c-0.3144531,0-0.6074219-0.1992188-0.7119141-0.5136719   c-0.1303711-0.3935547,0.0825195-0.8173828,0.4755859-0.9482422l14.8564453-4.9306641   c0.394043-0.1347656,0.8173828,0.0830078,0.9482422,0.4755859c0.1303711,0.3935547-0.0825195,0.8173828-0.4755859,0.9482422   L39.4658203,31.984375C39.387207,32.0107422,39.3076172,32.0224609,39.2294922,32.0224609z" fill="#373684"/></g></svg>